{
  "asset": {
    "version": "2.0",
    "generator": "jiaobei_generator"
  },
  "scene": 0,
  "scenes": [
    {
      "nodes": [
        0,
        1
      ]
    }
  ],
  "nodes": [
    {
      "mesh": 0,
      "name": "jiaobei_node_0"
    },
    {
      "mesh": 1,
      "name": "jiaobei_node_1"
    }
  ],
  "meshes": [
    {
      "name": "jiaobei_0",
      "primitives": [
        {
          "attributes": {
            "POSITION": 0,
            "NORMAL": 1
          },
          "indices": 2,
          "material": 0
        }
      ]
    },
    {
      "name": "jiaobei_1",
      "primitives": [
        {
          "attributes": {
            "POSITION": 3,
            "NORMAL": 4
          },
          "indices": 5,
          "material": 0
        }
      ]
    }
  ],
  "materials": [
    {
      "name": "red_material",
      "pbrMetallicRoughness": {
        "baseColorFactor": [
          0.85,
          0.05,
          0.05,
          1.0
        ],
        "metallicFactor": 0.1,
        "roughnessFactor": 0.4
      },
      "doubleSided": true
    }
  ],
  "accessors": [
    {
      "bufferView": 0,
      "byteOffset": 0,
      "componentType": 5126,
      "count": 1274,
      "type": "VEC3",
      "min": [
        -1.25,
        0.0,
        -0.25
      ],
      "max": [
        -0.1499999999999999,
        0.22,
        0.25
      ]
    },
    {
      "bufferView": 1,
      "byteOffset": 0,
      "componentType": 5126,
      "count": 1274,
      "type": "VEC3"
    },
    {
      "bufferView": 2,
      "byteOffset": 0,
      "componentType": 5125,
      "count": 7056,
      "type": "SCALAR"
    },
    {
      "bufferView": 3,
      "byteOffset": 0,
      "componentType": 5126,
      "count": 1274,
      "type": "VEC3",
      "min": [
        0.1499999999999999,
        -0.22,
        -0.25
      ],
      "max": [
        1.25,
        0.0,
        0.25
      ]
    },
    {
      "bufferView": 4,
      "byteOffset": 0,
      "componentType": 5126,
      "count": 1274,
      "type": "VEC3"
    },
    {
      "bufferView": 5,
      "byteOffset": 0,
      "componentType": 5125,
      "count": 7056,
      "type": "SCALAR"
    }
  ],
  "bufferViews": [
    {
      "buffer": 0,
      "byteOffset": 0,
      "byteLength": 15288,
      "target": 34962
    },
    {
      "buffer": 0,
      "byteOffset": 15288,
      "byteLength": 15288,
      "target": 34962
    },
    {
      "buffer": 0,
      "byteOffset": 30576,
      "byteLength": 28224,
      "target": 34963
    },
    {
      "buffer": 0,
      "byteOffset": 58800,
      "byteLength": 15288,
      "target": 34962
    },
    {
      "buffer": 0,
      "byteOffset": 74088,
      "byteLength": 15288,
      "target": 34962
    },
    {
      "buffer": 0,
      "byteOffset": 89376,
      "byteLength": 28224,
      "target": 34963
    }
  ],
  "buffers": [
    {
      "uri": "data:application/octet-stream;base64,",
      "byteLength": 117600
    }
  ]
}